<svg id="Layer_1" height="512" viewBox="0 0 64 64" width="512" xmlns="http://www.w3.org/2000/svg" data-name="Layer 1"><path d="m20 19h-1.031a5 5 0 1 0 -5.938 0h-1.031a5.006 5.006 0 0 0 -5 5v11a1 1 0 0 0 1 1h16a1 1 0 0 0 1-1v-11a5.006 5.006 0 0 0 -5-5zm-7-4a3 3 0 1 1 3 3 3 3 0 0 1 -3-3zm10 19h-14v-10a3 3 0 0 1 3-3h8a3 3 0 0 1 3 3z"/><path d="m57 31.624v-24.624a3 3 0 0 0 -3-3h-50a3 3 0 0 0 -3 3v38a3 3 0 0 0 3 3h21.5v5h-6.5a1 1 0 0 0 -.781.375l-4 5a1 1 0 0 0 .781 1.625h28a1 1 0 0 0 .781-1.625l-4-5a1 1 0 0 0 -.781-.375h-6.5v-5h8.124a11.99 11.99 0 1 0 16.376-16.376zm-18.48 23.376 2.4 3h-23.839l2.4-3zm-11.02-2v-5h3v5zm-23.5-7a1 1 0 0 1 -1-1v-3h36a11.922 11.922 0 0 0 .7 4zm35.181-6h-36.181v-33a1 1 0 0 1 1-1h50a1 1 0 0 1 1 1v23.7a11.949 11.949 0 0 0 -15.819 9.3zm11.819 12a10 10 0 1 1 10-10 10.011 10.011 0 0 1 -10 10z"/><path d="m29 15h16v2h-16z"/><path d="m29 21h22v2h-22z"/><path d="m29 27h11v2h-11z"/><path d="m55.243 36.343-4.243 4.243-4.243-4.243-1.414 1.414 4.243 4.243-4.243 4.243 1.414 1.414 4.243-4.243 4.243 4.243 1.414-1.414-4.243-4.243 4.243-4.243z"/></svg>